<svg width="165" height="46" viewBox="0 0 165 46" fill="none" xmlns="http://www.w3.org/2000/svg">
<path d="M18.3505 43.0747C15.885 43.099 13.4398 42.6271 11.1603 41.6871C8.97612 40.7921 6.99017 39.4745 5.31651 37.8099C3.64284 36.1454 2.31441 34.1667 1.40747 31.9873C-0.469158 27.2834 -0.469158 22.0387 1.40747 17.3348C2.30623 15.1521 3.6311 13.1704 5.30464 11.5057C6.97041 9.85151 8.95309 8.5508 11.1338 7.68154C15.7813 5.8577 20.9463 5.8577 25.5938 7.68154C27.7804 8.5618 29.768 9.87215 31.4388 11.5349C33.1095 13.1977 34.4294 15.179 35.3201 17.3614C37.1784 22.0527 37.1784 27.2761 35.3201 31.9674C34.4202 34.1633 33.0958 36.1599 31.4229 37.8431C29.7564 39.5077 27.7747 40.8236 25.5938 41.7137C23.2944 42.6462 20.8316 43.109 18.3505 43.0747ZM18.3505 37.9161C20.1039 37.9371 21.8425 37.5934 23.456 36.9069C24.9786 36.2577 26.3539 35.3069 27.4992 34.1119C28.6483 32.8962 29.5502 31.4689 30.1549 29.9093C30.8027 28.2396 31.1271 26.4619 31.1109 24.671C31.1283 22.8887 30.8038 21.1195 30.1549 19.4593C29.5438 17.9029 28.6426 16.4768 27.4992 15.2568C26.3569 14.0516 24.9812 13.0916 23.456 12.4351C20.1951 11.0985 16.5392 11.0985 13.2782 12.4351C11.7471 13.0939 10.3667 14.0586 9.22172 15.27C8.06803 16.4821 7.16549 17.9103 6.56607 19.4726C5.93005 21.1358 5.61249 22.9038 5.62996 24.6843C5.61372 26.4734 5.93118 28.2499 6.56607 29.9226C7.15906 31.4881 8.06237 32.9175 9.22172 34.1251C10.3719 35.3235 11.7545 36.2746 13.2849 36.9202C14.8875 37.5953 16.6116 37.9342 18.3505 37.9161Z" fill="white"/>
<path d="M41.6934 42.4903V6.89136H64.8772V11.9105H47.3565V22.6194H62.9917V27.6386H47.3565V42.4903H41.6934Z" fill="white"/>
<path d="M62.0693 42.4903L74.5774 6.89136H81.5551L94.0964 42.4903H88.0748L85.3527 34.5234H70.8662L68.091 42.4903H62.0693ZM72.4928 29.4843H83.6266L77.3194 10.8416H78.8995L72.4928 29.4843Z" fill="white"/>
<path d="M135.133 42.4902V6.89125H146.798C150.145 6.80599 153.46 7.57121 156.431 9.11535C159.098 10.5413 161.297 12.7058 162.765 15.3495C164.234 18.2275 165 21.4129 165 24.6442C165 27.8756 164.234 31.061 162.765 33.939C161.299 36.596 159.1 38.776 156.431 40.2196C153.466 41.7857 150.15 42.5673 146.798 42.4902H135.133ZM140.776 37.471H146.897C149.189 37.5272 151.455 36.9825 153.47 35.8909C155.311 34.8606 156.812 33.3175 157.792 31.4493C158.859 29.3477 159.386 27.0136 159.326 24.6575C159.378 22.319 158.844 20.0046 157.772 17.9255C156.772 16.0752 155.272 14.5431 153.444 13.5038C151.437 12.4159 149.179 11.8734 146.897 11.9303H140.776V37.471Z" fill="white"/>
<path d="M128.891 0.192535L142.03 0L141.977 3.98347L131.686 4.31543L126.01 27.2204C126.986 28.8271 128.991 32.5317 127.69 34.8554C126.767 36.5019 124.642 36.5683 118.621 36.6081C108.416 36.6745 98.9555 36.6081 98.9156 36.6081V32.2728L124.144 32.3458C123.48 31.1043 122.777 29.8694 122.099 28.6279L98.9156 28.8337L93.8301 7.3827L115.035 7.31631V11.2334L99.9381 11.2998L102.68 24.9166H121.648L128.891 0.192535Z" fill="#FFC501"/>
<path d="M123.339 45.254C125.183 45.254 126.678 43.854 126.678 42.127C126.678 40.4 125.183 39 123.339 39C121.494 39 119.999 40.4 119.999 42.127C119.999 43.854 121.494 45.254 123.339 45.254Z" fill="#FFC501"/>
<path d="M102.339 45.254C104.183 45.254 105.678 43.854 105.678 42.127C105.678 40.4 104.183 39 102.339 39C100.494 39 98.999 40.4 98.999 42.127C98.999 43.854 100.494 45.254 102.339 45.254Z" fill="#FFC501"/>
</svg>
